# xmcd
#
# Track frame offsets: 
#        200
#        16775
#        44455
#        67287
#
# Disc length: 1248 seconds
#
# Revision: 1
# Processed by: cddbd v1.5.2PL0 Copyright (c) Steve Scherf et al.
# Submitted via: ExactAudioCopy v1.0b3
#
DISCID=3104de04
DTITLE=Neneh Cherry - Money Love
DYEAR=1900
DGENRE=House
TTITLE0=Money Love (LP Version)
TTITLE1=Money Love (Extended Version)
TTITLE2=Money Love (Perfecto Mix Edit)
TTITLE3=Money Love (Perfecto Mix)
EXTD=
EXTT0=
EXTT1=
EXTT2=
EXTT3=
PLAYORDER=
